<?xml version="1.0" encoding="UTF-8" standalone="no"?><!DOCTYPE svg PUBLIC "-//W3C//DTD SVG 1.1//EN" "http://www.w3.org/Graphics/SVG/1.1/DTD/svg11.dtd"><svg width="100%" height="100%" viewBox="0 0 4925 3734" version="1.1" xmlns="http://www.w3.org/2000/svg" xmlns:xlink="http://www.w3.org/1999/xlink" xml:space="preserve" xmlns:serif="http://www.serif.com/" style="fill-rule:evenodd;clip-rule:evenodd;stroke-linejoin:round;stroke-miterlimit:2;"><path d="M466.667,437.5c12.443,0.416 24.789,0.59 37.232,0.575c5.782,0.018 5.782,0.018 11.681,0.036c12.973,0.035 25.946,0.04 38.919,0.046c9.28,0.019 18.56,0.041 27.841,0.064c20.019,0.047 40.037,0.082 60.056,0.109c31.677,0.044 63.354,0.129 95.031,0.221c44.44,0.127 88.88,0.249 133.32,0.356c2.821,0.007 5.642,0.014 8.548,0.021c45.635,0.109 91.27,0.187 136.906,0.257c46.896,0.073 93.792,0.194 140.688,0.354c26.312,0.088 52.624,0.152 78.937,0.162c24.778,0.009 49.555,0.075 74.332,0.185c9.07,0.03 18.14,0.039 27.209,0.025c45.069,-0.059 85.908,0.688 129.299,14.256c10.68,1.905 21.226,3.025 32.031,4.167c21.098,2.583 39.921,6.262 59.798,13.688c10.537,3.841 21.351,6.234 32.243,8.854c34.615,9.186 67.79,22.374 100.928,35.791c5.74,2.304 5.74,2.304 11.597,4.655c11.856,4.762 23.698,9.556 35.539,14.355c4.01,1.609 8.019,3.217 12.15,4.875c18.684,7.59 36.208,15.169 53.215,26.115c9.437,5.167 18.9,10.287 28.385,15.365c4.839,2.594 9.679,5.188 14.665,7.861c3.668,1.96 7.337,3.921 11.117,5.941l0,8.333c2.82,0.897 5.64,1.794 8.545,2.718c16.114,7.363 28.572,17.641 42.236,28.792c17.451,14.776 17.451,14.776 36.719,26.823l0,8.333c2.492,1.117 4.984,2.234 7.552,3.385c9.108,4.944 15.003,9.515 21.615,17.448l0,8.333c2.492,1.117 4.984,2.234 7.552,3.385c9.108,4.944 15.003,9.515 21.615,17.448l0,8.333c2.299,0.822 4.598,1.644 6.966,2.49c13.716,8.262 22.1,20.064 31.576,32.666c1.912,2.441 3.824,4.882 5.794,7.397c13.997,18.351 13.997,18.351 13.997,32.446l8.333,0l0,12.5c4.125,1.375 8.25,2.75 12.5,4.167c6.036,9.298 11.428,18.396 16.667,28.125c2.863,5.188 5.727,10.374 8.594,15.56c1.36,2.499 2.72,4.998 4.121,7.573c3.536,6.329 7.349,12.502 11.195,18.647c6.158,10.847 6.31,17.816 5.257,30.094l8.333,0c9.321,20.417 16.226,40.727 22.298,62.337c1.949,8.381 1.949,8.381 6.868,12.663c0.602,4.641 1.203,9.281 1.823,14.062c1.315,15.459 1.315,15.459 10.677,27.604c1.579,9.277 1.579,9.277 2.344,19.271c0.114,12.442 0.114,12.442 5.99,22.396c1.355,14.005 2.14,28.014 2.995,42.057c-0.167,11.653 -0.167,11.653 5.339,16.276c0.41,6.372 0.533,12.763 0.539,19.149c0.013,4.074 0.026,8.148 0.04,12.345c-0.013,6.647 -0.013,6.647 -0.026,13.428c0.006,6.774 0.006,6.774 0.012,13.685c0.003,9.569 -0.005,19.139 -0.022,28.708c-0.022,14.705 -0,29.409 0.026,44.114c-0.003,9.272 -0.008,18.544 -0.016,27.816c0.008,4.431 0.017,8.863 0.026,13.428c-0.013,4.074 -0.026,8.148 -0.04,12.345c-0.005,5.408 -0.005,5.408 -0.01,10.925c-0.529,8.224 -0.529,8.224 -4.696,12.391c-0.87,8.317 -1.532,16.656 -2.083,25c-1.62,24.537 -1.62,24.537 -6.25,29.167c-1.457,6.39 -2.728,12.823 -3.906,19.271c-3.357,17.568 -7.555,34.459 -12.76,51.562l-8.333,0c0.242,3.615 0.483,7.229 0.732,10.954c-0.833,15.98 -4.889,24.784 -12.451,38.786c-10.817,20.469 -10.817,20.469 -20.052,41.667c-5.971,13.3 -13.154,22.392 -22.396,33.594c-3.709,6.594 -7.415,13.191 -11.084,19.808c-7.804,13.082 -16.279,25.682 -24.854,38.265c-1.653,2.468 -3.305,4.936 -5.008,7.479c-4.188,6.084 -8.682,11.955 -13.221,17.782l-8.333,0c-1.418,3.352 -1.418,3.352 -2.865,6.771c-7.368,13.332 -16.038,23.606 -26.302,34.896l-8.333,0c-1.117,2.492 -2.234,4.984 -3.385,7.552c-4.944,9.108 -9.515,15.003 -17.448,21.615l-8.333,0l0,8.333l-8.333,0c-1.117,2.664 -2.234,5.328 -3.385,8.073c-4.948,8.594 -4.948,8.594 -17.448,12.76l0,8.333c-3.781,2.492 -7.562,4.984 -11.458,7.552c-13.522,8.04 -13.522,8.04 -20.638,18.473c-12.589,15.094 -27.159,25.879 -42.904,37.516c-2.965,2.256 -5.93,4.512 -8.984,6.836c-2.879,2.148 -5.758,4.297 -8.724,6.51c-2.6,1.94 -5.199,3.881 -7.878,5.88c-8.136,4.97 -15.099,7.101 -24.414,8.899l0,8.333c4.125,1.375 8.25,2.75 12.5,4.167c4.753,5.941 4.753,5.941 9.375,13.802c1.778,2.976 3.556,5.951 5.387,9.017c4.446,7.7 8.882,15.404 13.314,23.112c3.762,6.526 3.762,6.526 7.601,13.184c2.326,4.098 4.651,8.196 7.048,12.419c7.068,12.074 7.068,12.074 16.504,22.949c7.438,9.684 7.438,9.684 7.438,22.184l8.333,0c3.48,6.316 3.48,6.316 7.031,12.76c6.383,11.278 13.331,21.659 21.094,32.031c9.375,13.542 9.375,13.542 9.375,26.042l8.333,0c6.201,8.651 11.872,17.259 17.448,26.302c1.673,2.658 3.346,5.316 5.069,8.055c3.413,5.426 6.813,10.859 10.202,16.3c6.483,10.409 13.048,20.764 19.625,31.114c2.299,3.636 4.598,7.272 6.966,11.019c10.849,16.777 22.215,33.199 33.61,49.609c7.232,12.021 11.505,23.335 15.413,36.768l8.333,0c0.983,2.836 1.966,5.672 2.979,8.594c6.543,14.954 15.204,27.978 24.365,41.406c1.823,2.711 3.646,5.422 5.524,8.215c9.252,13.714 18.645,27.315 28.217,40.808c1.729,2.449 3.458,4.898 5.24,7.422c4.783,6.748 9.61,13.466 14.438,20.182c6.738,10.872 6.738,10.872 6.738,23.372l8.333,0c5.094,7.697 9.807,15.648 14.323,23.698c2.487,4.399 4.974,8.798 7.536,13.33c2.412,4.281 4.823,8.562 7.308,12.972c6.571,11.29 12.771,21.162 21.094,31.25c8.073,10.417 8.073,10.417 11.214,19.303c7.523,17.31 18.587,31.638 29.671,46.842c15.38,21.18 29.4,42.266 42.188,65.104c3.717,5.282 7.513,10.511 11.458,15.625c9.375,13.542 9.375,13.542 9.375,26.042l8.333,0c6.201,8.651 11.872,17.259 17.448,26.302c1.679,2.667 3.358,5.334 5.087,8.082c5.013,7.968 9.99,15.958 14.965,23.949c4.763,7.559 9.536,15.112 14.323,22.656c2.277,3.609 4.555,7.219 6.901,10.938c6.21,9.569 12.541,18.993 19.01,28.385c1.915,2.801 3.83,5.603 5.803,8.489c3.789,5.526 7.609,11.03 11.464,16.51c9.733,14.236 13.331,20.285 13.331,38.022l8.333,0c3.094,5.801 3.094,5.801 6.25,11.719c7.987,14.069 17.169,26.868 26.823,39.844c12.614,17.037 23.319,34.133 33.187,52.865c4.867,9.097 4.867,9.097 14.209,20.052c7.031,8.854 7.031,8.854 7.031,21.354l8.333,0c6.965,10.209 13.443,20.405 19.792,30.99c3.744,6.139 7.493,12.275 11.247,18.408c1.817,2.978 3.635,5.955 5.507,9.023c8.116,13.068 16.84,25.695 25.71,38.259c4.713,7.999 6.791,15.083 8.577,24.154l8.333,0c8.333,12.5 8.333,12.5 8.333,29.167l8.333,0c2.02,3.679 4.039,7.358 6.12,11.149c16.151,29.046 33.056,56.482 53.206,83.008c19.84,27.055 19.84,27.055 19.84,41.781c-5.889,13.986 -11.061,16.206 -25,22.396c-14.68,1.844 -29.263,1.707 -44.042,1.617c-4.433,0.022 -8.867,0.044 -13.434,0.066c-14.647,0.055 -29.293,0.019 -43.94,-0.024c-10.186,0.008 -20.373,0.021 -30.559,0.036c-21.348,0.018 -42.696,-0.008 -64.045,-0.067c-27.355,-0.071 -54.708,-0.03 -82.062,0.045c-21.036,0.045 -42.072,0.031 -63.107,-0.002c-10.085,-0.008 -20.171,0.002 -30.256,0.031c-14.103,0.032 -28.204,-0.017 -42.307,-0.086c-4.163,0.025 -8.326,0.051 -12.616,0.077c-22.217,-0.203 -37.62,-1.948 -56.966,-14.194l0,-8.333l-8.333,0c-2.492,-4.469 -4.984,-8.938 -7.552,-13.542c-5.079,-8.965 -10.058,-16.837 -16.406,-25c-5.208,-7.292 -5.208,-7.292 -5.208,-19.792l-8.333,0c-5.729,-8.594 -5.729,-8.594 -12.5,-20.833c-26.063,-45.95 -54.404,-90.433 -83.936,-134.229c-7.472,-11.216 -14.656,-22.57 -21.794,-34.001c-13.167,-20.886 -27.359,-40.909 -41.974,-60.797c-31.964,-43.895 -31.964,-43.895 -35.63,-66.807l-8.333,0l0,-12.5l-8.333,0c-1.547,-4.039 -3.094,-8.078 -4.688,-12.24c-11.063,-25.831 -28.122,-48.125 -44.792,-70.573c-8.854,-13.021 -8.854,-13.021 -8.854,-25.521l-8.333,0c-6.525,-9.261 -12.571,-18.487 -18.49,-28.125c-3.287,-5.277 -6.58,-10.551 -9.88,-15.82c-2.335,-3.758 -2.335,-3.758 -4.718,-7.593c-4.668,-7.414 -4.668,-7.414 -11.851,-16.235c-5.062,-7.227 -5.062,-7.227 -5.062,-19.727l-8.333,0c-3.094,-5.801 -3.094,-5.801 -6.25,-11.719c-7.896,-13.916 -16.975,-26.521 -26.562,-39.323c-18.732,-25.35 -36.33,-52.22 -46.354,-82.292l-8.333,0c-7.157,-16.591 -14.21,-33.187 -20.833,-50l-8.333,0c-3.48,-6.316 -3.48,-6.316 -7.031,-12.76c-6.383,-11.278 -13.331,-21.659 -21.094,-32.031c-9.375,-13.542 -9.375,-13.542 -9.375,-26.042l-8.333,0c-6.201,-8.651 -11.873,-17.259 -17.448,-26.302c-1.658,-2.634 -3.315,-5.268 -5.023,-7.981c-3.398,-5.401 -6.783,-10.811 -10.156,-16.227c-6.947,-11.152 -13.978,-22.25 -21.018,-33.344c-2.224,-3.534 -4.447,-7.068 -6.738,-10.71c-6.119,-9.618 -6.119,-9.618 -12.972,-18.311c-5.811,-7.959 -5.811,-7.959 -11.8,-22.282c-6.238,-14.223 -13.53,-23.702 -23.177,-35.677l0,-12.5l-8.333,0c-2.336,-4.184 -4.673,-8.368 -7.08,-12.679c-9.217,-16.121 -19.27,-31.558 -29.639,-46.956c-1.807,-2.706 -3.613,-5.411 -5.475,-8.199c-13.03,-19.441 -26.491,-38.529 -40.391,-57.361c-4.915,-8.138 -4.915,-8.138 -4.915,-20.638l-8.333,0c-2.062,-3.867 -4.125,-7.734 -6.25,-11.719c-7.987,-14.069 -17.169,-26.868 -26.823,-39.844c-12.614,-17.037 -23.319,-34.133 -33.187,-52.865c-4.867,-9.097 -4.867,-9.097 -14.209,-20.052c-7.031,-8.854 -7.031,-8.854 -7.031,-21.354l-8.333,0c-11.46,-14.561 -19.81,-30.842 -26.823,-47.917c-6.993,-15.664 -15.653,-27.257 -26.481,-40.43c-5.029,-7.487 -5.029,-7.487 -5.029,-19.987l-8.333,0c-6.201,-8.651 -11.872,-17.259 -17.448,-26.302c-1.673,-2.655 -3.346,-5.31 -5.069,-8.045c-5.022,-7.978 -10.008,-15.978 -14.983,-23.986c-31.769,-52.775 -31.769,-52.775 -70.833,-100c-2.255,-23.681 -2.255,-23.681 0,-33.333c26.432,-24.552 65.584,-31.426 99.597,-39.591c26.913,-6.479 53.19,-14.524 79.569,-22.909c5.716,-1.753 11.435,-3.5 17.155,-5.241c5.914,-1.812 11.827,-3.624 17.741,-5.436c2.726,-0.824 5.452,-1.648 8.26,-2.497c13.211,-4.082 25.818,-8.649 38.534,-14.104c12.935,-5.537 25.326,-9.434 38.883,-13.086c47.885,-14.415 93.322,-38.404 133.594,-67.969c3.137,-2.245 6.273,-4.49 9.505,-6.803c16.459,-11.076 16.459,-11.076 27.995,-26.53l8.333,0c1.375,-4.125 2.75,-8.25 4.167,-12.5l8.333,0c1.692,-3.658 1.692,-3.658 3.418,-7.389c4.869,-9.189 10.309,-16.363 16.895,-24.382c20.174,-26.423 29.714,-57.221 38.021,-89.062l8.333,0c-0.048,-3.862 -0.097,-7.724 -0.146,-11.702c-0.056,-7.485 -0.056,-7.485 -0.114,-15.12c-0.073,-7.469 -0.073,-7.469 -0.146,-15.088c0.407,-12.256 0.407,-12.256 4.574,-16.423c0.416,-10.464 0.578,-20.788 0.521,-31.25c0.016,-2.927 0.032,-5.854 0.049,-8.87c1.28,-14.481 1.28,-14.481 -4.736,-26.546c-1.348,-11.832 -2.138,-23.67 -2.995,-35.547c-0.063,-10.042 -0.063,-10.042 -5.339,-14.453c-0.344,-5.156 -0.688,-10.312 -1.042,-15.625c-6.659,-62.086 -45.232,-122.253 -86.458,-167.708l0,-8.333c-2.191,-1.047 -4.383,-2.095 -6.641,-3.174c-10.123,-5.209 -19.891,-10.899 -29.692,-16.687c-28.697,-16.859 -57.592,-30.59 -88.668,-42.639c-3.55,-1.493 -7.101,-2.986 -10.758,-4.525c-22.217,-9.307 -44.409,-16.221 -67.773,-22.087c-8.968,-2.555 -8.968,-2.555 -13.135,-6.722c-52.937,-13.927 -105.148,-14.275 -159.515,-14.103c-9.165,-0.017 -18.329,-0.04 -27.494,-0.068c-19.597,-0.049 -39.194,-0.059 -58.792,-0.04c-30.992,0.029 -61.983,-0.038 -92.975,-0.118c-68.518,-0.164 -137.035,-0.215 -205.553,-0.259c-19.561,-0.013 -39.123,-0.026 -58.684,-0.041c-2.756,-0.002 -5.512,-0.004 -8.352,-0.006c-45.966,-0.036 -91.931,-0.122 -137.896,-0.241c-30.811,-0.076 -61.62,-0.093 -92.431,-0.063c-19.131,0.006 -38.261,-0.039 -57.391,-0.097c-8.872,-0.017 -17.744,-0.012 -26.616,0.016c-12.104,0.035 -24.205,-0.007 -36.309,-0.067c-3.513,0.029 -7.027,0.057 -10.646,0.087c-20.463,-0.199 -34.695,-2.671 -52.344,-14.164c-10.619,-15.928 -9.535,-28.852 -9.478,-47.313c-0.021,-3.551 -0.043,-7.103 -0.065,-10.762c-0.058,-11.756 -0.054,-23.512 -0.044,-35.268c-0.016,-8.163 -0.034,-16.326 -0.054,-24.489c-0.031,-17.118 -0.03,-34.235 -0.008,-51.352c0.024,-21.947 -0.046,-43.892 -0.143,-65.839c-0.061,-16.861 -0.065,-33.721 -0.052,-50.582c-0.002,-8.092 -0.024,-16.184 -0.066,-24.276c-0.051,-11.312 -0.023,-22.621 0.025,-33.933c-0.032,-3.349 -0.064,-6.698 -0.097,-10.149c0.129,-13.635 0.639,-23.415 7.409,-35.421c19.216,-18.39 44.954,-18.711 69.239,-10.616Z" style="fill:#eeeeed;fill-rule:nonzero;"/><path d="M3558.808,439.576c5.017,-0.023 10.034,-0.045 15.203,-0.068c13.688,-0.043 27.373,-0.012 41.061,0.057c14.35,0.058 28.701,0.031 43.051,0.016c24.08,-0.011 48.159,0.045 72.239,0.141c27.827,0.111 55.653,0.118 83.481,0.069c26.806,-0.045 53.611,-0.019 80.417,0.04c11.395,0.024 22.789,0.024 34.184,0.004c15.9,-0.012 31.798,0.056 47.698,0.147c4.725,-0.019 9.451,-0.038 14.32,-0.057c6.492,0.062 6.492,0.062 13.115,0.125c3.757,0.01 7.514,0.02 11.384,0.031c11.918,1.881 17.742,6.205 26.705,14.085c-1.941,20.047 -11.681,32.486 -23.958,47.656c-2.691,3.42 -2.691,3.42 -5.436,6.909c-5.423,6.859 -10.927,13.647 -16.439,20.435c-1.888,2.402 -3.776,4.803 -5.721,7.277c-4.848,6.064 -9.961,11.914 -15.112,17.723l-8.333,0c-0.945,2.17 -1.891,4.34 -2.865,6.576c-7.449,13.745 -16.798,25.86 -26.302,38.216c-1.88,2.508 -3.76,5.017 -5.697,7.601c-4.838,6.312 -9.967,12.398 -15.137,18.441l-8.333,0c-1.117,2.406 -2.234,4.812 -3.385,7.292c-5.07,9.606 -10.378,17.794 -17.448,26.042l-8.333,0c-1.042,2.326 -2.084,4.651 -3.158,7.048c-6.028,11.203 -13.277,20.341 -21.322,30.192c-4.238,5.213 -4.238,5.213 -8.561,10.531c-2.847,3.486 -5.693,6.972 -8.626,10.563c-2.933,3.873 -5.865,7.745 -8.887,11.735c-2.567,3.002 -5.135,6.005 -7.78,9.098l-8.333,0c-1.547,3.472 -1.547,3.472 -3.125,7.015c-6.161,11.417 -13.648,20.719 -21.875,30.745c-8.877,10.852 -17.217,21.399 -25,33.073l-8.333,0l0,8.333l-8.333,0c-1.117,3.094 -2.234,6.188 -3.385,9.375c-4.751,11.003 -9.505,19.19 -17.448,28.125l-8.333,0c-1.117,2.406 -2.234,4.812 -3.385,7.292c-5.07,9.606 -10.378,17.794 -17.448,26.042l-8.333,0c-1.117,2.406 -2.234,4.812 -3.385,7.292c-5.07,9.606 -10.378,17.794 -17.448,26.042l-8.333,0c-1.402,4.423 -1.402,4.423 -2.832,8.936c-6.641,14.363 -15.981,24.388 -26.855,35.596c-18.351,19.359 -35.209,39.312 -51.318,60.612c-2.143,2.428 -4.286,4.855 -6.494,7.357l-8.333,0c-0.435,2.428 -0.87,4.855 -1.318,7.357c-3.277,10.712 -7.747,16.535 -15.088,24.935c-2.186,2.557 -4.372,5.113 -6.624,7.747c-6.136,5.794 -6.136,5.794 -14.469,5.794c-1.117,3.094 -2.234,6.188 -3.385,9.375c-4.751,11.003 -9.505,19.19 -17.448,28.125l-8.333,0c-1.117,2.406 -2.234,4.812 -3.385,7.292c-5.07,9.606 -10.378,17.794 -17.448,26.042l-8.333,0l0,12.5l-8.333,0c-1.375,4.125 -2.75,8.25 -4.167,12.5l-8.333,0c-2.75,6.875 -5.5,13.75 -8.333,20.833l-8.333,0c-1.031,2.299 -2.062,4.598 -3.125,6.966c-6.218,11.581 -13.695,21.29 -21.875,31.576c-2.922,3.717 -5.844,7.434 -8.854,11.263c-3.867,4.222 -3.867,4.222 -7.812,8.529l-8.333,0c-1.418,4.407 -1.418,4.407 -2.865,8.903c-6.689,14.593 -15.441,24.356 -26.302,36.149c-3.695,4.066 -7.391,8.132 -11.198,12.321c-9.635,9.294 -9.635,9.294 -17.969,9.294c-4.125,12.375 -4.125,12.375 -8.333,25l-8.333,0c-1.375,4.125 -2.75,8.25 -4.167,12.5l-8.333,0c-1.418,3.352 -1.418,3.352 -2.865,6.771c-7.368,13.332 -16.038,23.606 -26.302,34.896l-8.333,0c-4.125,12.375 -4.125,12.375 -8.333,25l-8.333,0c-1.375,4.125 -2.75,8.25 -4.167,12.5l-8.333,0c-1.418,3.223 -1.418,3.223 -2.865,6.51c-7.478,13.887 -15.884,27.436 -26.302,39.323l-8.333,0c-1.117,3.18 -2.234,6.359 -3.385,9.635c-4.745,10.739 -8.34,16.488 -17.448,23.698l-8.333,0c-1.675,3.633 -1.675,3.633 -3.384,7.338c-5.031,9.483 -10.623,16.993 -17.465,25.246c-2.398,2.917 -4.796,5.833 -7.267,8.838c-2.495,3.002 -4.99,6.005 -7.56,9.098c-4.96,5.995 -9.914,11.995 -14.86,18.001c-2.194,2.643 -4.389,5.286 -6.65,8.01c-5.626,6.738 -5.626,6.738 -9.48,15.135l-8.333,0c-1.375,4.125 -2.75,8.25 -4.167,12.5l-8.333,0c-1.563,3.489 -1.563,3.489 -3.158,7.048c-6.028,11.203 -13.277,20.341 -21.322,30.192c-2.825,3.475 -5.65,6.95 -8.561,10.531c-2.847,3.486 -5.693,6.972 -8.626,10.563c-2.933,3.873 -5.865,7.745 -8.887,11.735c-2.567,3.002 -5.135,6.005 -7.78,9.098l-8.333,0c-1.563,3.489 -1.563,3.489 -3.158,7.048c-6.028,11.203 -13.277,20.341 -21.322,30.192c-2.825,3.475 -5.65,6.95 -8.561,10.531c-2.847,3.486 -5.693,6.972 -8.626,10.563c-2.933,3.873 -5.865,7.745 -8.887,11.735c-2.567,3.002 -5.135,6.005 -7.78,9.098l-8.333,0c-1.117,3.094 -2.234,6.188 -3.385,9.375c-4.751,11.003 -9.505,19.19 -17.448,28.125l-8.333,0c-7.353,12.867 -8.333,17.638 -8.333,33.333c5.39,7.074 10.938,14.031 16.667,20.833l0,8.333c4.125,1.375 8.25,2.75 12.5,4.167l0,8.333l8.333,0c5.843,6.706 5.843,6.706 12.24,15.625c3.15,4.351 3.15,4.351 6.364,8.789c3.166,4.415 3.166,4.415 6.396,8.919c2.326,2.943 4.651,5.887 7.048,8.919c5.452,7.747 5.452,7.747 5.452,16.081l8.333,0c12.5,14.423 12.5,14.423 12.5,25l8.333,0c5.371,6.087 5.371,6.087 10.938,14.062c1.858,2.61 3.717,5.221 5.632,7.91c4.264,7.194 4.264,7.194 4.264,15.527l8.333,0c6.136,6.852 6.136,6.852 12.76,15.885c2.197,2.949 4.394,5.897 6.657,8.936c5.583,8.512 5.583,8.512 9.749,21.012l8.333,0c7.105,8.454 13.754,16.918 20.312,25.781c3.633,4.835 7.268,9.669 10.905,14.502c1.75,2.349 3.499,4.698 5.302,7.119c4.774,6.274 9.786,12.364 14.815,18.435c6.999,9.163 6.999,9.163 6.999,17.497l8.333,0c12.5,14.423 12.5,14.423 12.5,25l8.333,0c7.194,8.822 7.194,8.822 15.104,20.312c2.632,3.771 5.264,7.541 7.975,11.426c6.087,9.928 6.087,9.928 6.087,18.262c2.342,0.859 4.684,1.719 7.096,2.604c13.006,7.786 20.572,18.693 29.362,30.729c3.658,4.897 7.32,9.79 10.986,14.681c2.726,3.656 2.726,3.656 5.507,7.385c10.43,13.762 21.489,27.022 32.481,40.336c6.234,8.431 6.234,8.431 10.4,20.931c4.125,1.375 8.25,2.75 12.5,4.167l0,8.333l8.333,0c16.667,28.125 16.667,28.125 16.667,37.5c2.385,0.945 4.77,1.891 7.227,2.865c12.029,6.968 18.585,15.391 27.148,26.302c2.943,3.695 5.887,7.391 8.919,11.198c6.706,9.635 6.706,9.635 6.706,17.969l8.333,0c5.371,6.087 5.371,6.087 10.938,14.062c1.858,2.61 3.717,5.221 5.632,7.91c4.264,7.194 4.264,7.194 4.264,15.527l8.333,0c7.194,6.852 7.194,6.852 15.104,15.885c2.632,2.949 5.264,5.897 7.975,8.936c6.087,8.512 6.087,8.512 6.087,21.012l8.333,0c7.105,8.454 13.754,16.918 20.312,25.781c3.633,4.835 7.268,9.669 10.905,14.502c1.75,2.349 3.499,4.698 5.302,7.119c4.774,6.274 9.786,12.364 14.815,18.435c6.999,9.163 6.999,9.163 6.999,17.497l8.333,0c5.371,6.087 5.371,6.087 10.938,14.062c2.788,3.916 2.788,3.916 5.632,7.91c4.264,7.194 4.264,7.194 4.264,15.527c2.299,0.816 4.598,1.633 6.966,2.474c13.764,8.314 22.107,20.254 31.576,32.943c2.868,3.714 2.868,3.714 5.794,7.503c13.997,18.455 13.997,18.455 13.997,27.913l8.333,0c6.943,8.192 13.406,16.389 19.792,25c1.855,2.464 3.71,4.929 5.621,7.468c3.715,4.939 7.42,9.886 11.115,14.841c4.424,5.904 8.925,11.75 13.44,17.584c2.245,2.906 4.49,5.812 6.803,8.805c1.944,2.508 3.889,5.017 5.892,7.601c4.004,6.201 4.004,6.201 4.004,14.535c2.422,0.983 4.845,1.966 7.34,2.979c11.419,6.556 17.199,13.938 25.212,24.365c2.863,3.701 5.726,7.401 8.675,11.214c2.895,3.776 5.79,7.552 8.773,11.442c2.852,3.561 5.704,7.122 8.643,10.791c2.648,3.314 5.296,6.628 8.024,10.042c2.406,3.008 4.812,6.016 7.292,9.115c5.208,7.552 5.208,7.552 5.208,15.885l8.333,0c7.105,8.454 13.754,16.918 20.312,25.781c3.633,4.835 7.268,9.669 10.905,14.502c1.75,2.349 3.499,4.698 5.302,7.119c4.774,6.274 9.786,12.364 14.815,18.435c6.999,9.163 6.999,9.163 6.999,17.497l8.333,0c7.105,8.454 13.754,16.918 20.312,25.781c3.633,4.835 7.268,9.669 10.905,14.502c1.75,2.349 3.499,4.698 5.302,7.119c4.774,6.274 9.786,12.364 14.815,18.435c6.999,9.163 6.999,9.163 6.999,17.497c4.125,1.375 8.25,2.75 12.5,4.167c16.667,22.381 16.667,22.381 16.667,33.333c3.448,1.225 3.448,1.225 6.966,2.474c13.761,8.312 22.065,20.284 31.576,32.943c4.04,5.275 8.081,10.549 12.126,15.82c1.988,2.608 3.976,5.215 6.024,7.902c10.828,14.033 22.173,27.653 33.462,41.317c5.68,7.878 5.68,7.878 5.68,16.211c4.125,1.375 8.25,2.75 12.5,4.167c10.496,12.895 16.214,21.701 18.49,38.281c-1.823,11.719 -1.823,11.719 -7.292,19.271c-11.982,8.432 -22.654,9.645 -36.843,9.728c-5.283,0.045 -5.283,0.045 -10.673,0.09c-3.851,0.011 -7.702,0.022 -11.669,0.034c-6.099,0.041 -6.099,0.041 -12.322,0.083c-13.474,0.082 -26.949,0.131 -40.423,0.172c-4.6,0.017 -9.2,0.034 -13.94,0.051c-24.343,0.087 -48.687,0.147 -73.03,0.186c-25.15,0.046 -50.299,0.189 -75.449,0.355c-19.334,0.109 -38.669,0.144 -58.003,0.159c-9.271,0.02 -18.543,0.069 -27.814,0.146c-12.977,0.101 -25.95,0.098 -38.927,0.069c-3.826,0.053 -7.651,0.107 -11.593,0.162c-23.123,-0.188 -36.341,-3.345 -54.678,-18.787c-9.001,-9.863 -9.001,-9.863 -16.927,-20.312c-2.798,-3.642 -5.597,-7.283 -8.48,-11.035c-3.924,-5.108 -3.924,-5.108 -7.926,-10.319c-4.138,-4.886 -8.299,-9.752 -12.5,-14.583c-8.333,-10.417 -8.333,-10.417 -8.333,-18.75c-4.125,-1.375 -8.25,-2.75 -12.5,-4.167l0,-8.333l-8.333,0c-6.136,-6.852 -6.136,-6.852 -12.76,-15.885c-2.197,-2.949 -4.394,-5.897 -6.657,-8.936c-5.583,-8.512 -5.583,-8.512 -9.749,-21.012l-8.333,0c-6.136,-6.852 -6.136,-6.852 -12.76,-15.885c-2.197,-2.949 -4.394,-5.897 -6.657,-8.936c-5.583,-8.512 -5.583,-8.512 -9.749,-21.012l-8.333,0c-20.833,-22.817 -20.833,-22.817 -20.833,-33.333l-8.333,0c-5.371,-6.087 -5.371,-6.087 -10.938,-14.062c-2.788,-3.916 -2.788,-3.916 -5.632,-7.91c-4.264,-7.194 -4.264,-7.194 -4.264,-15.527l-8.333,0c-7.194,-6.999 -7.194,-6.999 -15.104,-16.146c-2.632,-2.997 -5.264,-5.994 -7.975,-9.082c-6.087,-8.105 -6.087,-8.105 -6.087,-16.439l-8.333,0c-12.5,-14.423 -12.5,-14.423 -12.5,-25l-8.333,0c-6.169,-7.031 -6.169,-7.031 -13.281,-16.667c-12.476,-16.59 -25.654,-32.102 -39.697,-47.38c-5.355,-6.787 -5.355,-6.787 -5.355,-15.12l-8.333,0c-7.194,-7.91 -7.194,-7.91 -15.104,-18.229c-3.948,-5.076 -3.948,-5.076 -7.975,-10.254c-6.087,-9.017 -6.087,-9.017 -6.087,-17.35l-8.333,0c-20.833,-22.817 -20.833,-22.817 -20.833,-33.333c-4.125,-1.375 -8.25,-2.75 -12.5,-4.167c-16.667,-22.381 -16.667,-22.381 -16.667,-33.333c-2.32,-0.859 -4.641,-1.719 -7.031,-2.604c-13.678,-8.133 -20.913,-17.989 -30.469,-30.729l0,-8.333l-8.333,0c-5.371,-6.087 -5.371,-6.087 -10.938,-14.062c-2.788,-3.916 -2.788,-3.916 -5.632,-7.91c-4.264,-7.194 -4.264,-7.194 -4.264,-15.527c-3.769,-1.656 -3.769,-1.656 -7.614,-3.346c-9.432,-5.197 -14.003,-9.698 -20.56,-18.122c-1.995,-2.549 -3.991,-5.097 -6.047,-7.723c-2.028,-2.656 -4.055,-5.312 -6.144,-8.049c-2.076,-2.64 -4.152,-5.28 -6.291,-8c-8.913,-11.501 -15.358,-19.967 -20.011,-33.927c-4.125,-1.375 -8.25,-2.75 -12.5,-4.167c-8.252,-8.968 -8.252,-8.968 -17.448,-20.573c-3.282,-4.12 -6.563,-8.239 -9.945,-12.484c-5.003,-6.324 -5.003,-6.324 -10.107,-12.777c-3.207,-3.916 -6.413,-7.831 -9.717,-11.865c-2.981,-3.647 -5.962,-7.294 -9.033,-11.051c-2.707,-3.309 -5.414,-6.617 -8.203,-10.026c-6.38,-8.724 -6.38,-8.724 -10.547,-21.224c-5.502,-2.883 -11.064,-5.653 -16.667,-8.333c-6.033,-6.102 -6.033,-6.102 -11.507,-13.135c-1.995,-2.549 -3.991,-5.097 -6.047,-7.723c-2.028,-2.656 -4.055,-5.312 -6.144,-8.049c-2.076,-2.64 -4.152,-5.28 -6.291,-8c-8.913,-11.501 -15.358,-19.967 -20.011,-33.927c-5.502,-2.883 -11.064,-5.653 -16.667,-8.333c-6.033,-6.102 -6.033,-6.102 -11.507,-13.135c-1.995,-2.549 -3.991,-5.097 -6.047,-7.723c-2.028,-2.656 -4.055,-5.312 -6.144,-8.049c-2.076,-2.64 -4.152,-5.28 -6.291,-8c-8.913,-11.501 -15.358,-19.967 -20.011,-33.927c-4.125,-1.375 -8.25,-2.75 -12.5,-4.167l0,-8.333l-8.333,0c-1.031,-3.953 -2.062,-7.906 -3.125,-11.979c-3.59,-13.275 -3.59,-13.275 -12.5,-16.439c-13.532,-7.095 -21.786,-18.25 -31.25,-29.915c-1.912,-2.277 -3.824,-4.555 -5.794,-6.901c-13.997,-16.997 -13.997,-16.997 -13.997,-26.432c-3.65,-1.49 -3.65,-1.49 -7.373,-3.011c-11.206,-6.417 -16.885,-13.543 -24.658,-23.812c-3.762,-4.89 -3.762,-4.89 -7.601,-9.88c-6.201,-9.131 -6.201,-9.131 -10.368,-21.631l-8.333,0c-1.031,-3.266 -2.062,-6.531 -3.125,-9.896c-6.074,-12.756 -9.708,-13.384 -21.875,-19.271c-3.125,-8.854 -3.125,-8.854 -4.167,-16.667l-8.333,0c-6.44,-6.868 -12.554,-14.045 -18.49,-21.354c-3.26,-3.964 -6.521,-7.928 -9.88,-12.012c-20.247,-27.645 -23.493,-47.907 -23.447,-81.335c-0.042,-4.366 -0.084,-8.733 -0.127,-13.232c-0.119,-14.409 -0.143,-28.816 -0.157,-43.226c-0.04,-10.047 -0.082,-20.094 -0.126,-30.141c-0.075,-21.057 -0.098,-42.114 -0.091,-63.172c0.001,-26.92 -0.169,-53.835 -0.385,-80.754c-0.139,-20.754 -0.164,-41.508 -0.158,-62.262c-0.015,-9.921 -0.07,-19.841 -0.167,-29.761c-0.123,-13.912 -0.086,-27.815 -0.011,-41.727c-0.07,-4.058 -0.14,-8.115 -0.213,-12.296c0.524,-38.414 18.964,-68.423 44.916,-96.228l8.333,0l0,-8.333l8.333,0c1.117,-3.094 2.234,-6.188 3.385,-9.375c4.751,-11.003 9.505,-19.19 17.448,-28.125l8.333,0c1.676,-4.641 1.676,-4.641 3.385,-9.375c4.751,-11.003 9.505,-19.19 17.448,-28.125l8.333,0c0.897,-2.911 1.794,-5.822 2.718,-8.822c7.056,-15.093 17.313,-25.744 28.792,-37.533c16.467,-16.428 16.467,-16.428 26.823,-36.979l8.333,0c0.945,-2.148 1.891,-4.297 2.865,-6.51c7.478,-13.887 15.884,-27.436 26.302,-39.323l8.333,0c1.031,-2.299 2.062,-4.598 3.125,-6.966c6.218,-11.581 13.695,-21.29 21.875,-31.576c2.922,-3.717 5.844,-7.434 8.854,-11.263c3.867,-4.222 3.867,-4.222 7.812,-8.529l8.333,0c1.117,-3.867 2.234,-7.734 3.385,-11.719c4.572,-12.272 7.171,-18.074 17.448,-25.781l8.333,0c1.117,-3.094 2.234,-6.188 3.385,-9.375c4.751,-11.003 9.505,-19.19 17.448,-28.125l8.333,0c1.042,-2.331 2.084,-4.662 3.158,-7.064c6.01,-11.151 13.259,-20.149 21.322,-29.915c9.674,-11.847 18.942,-23.507 27.083,-36.458c2.234,-3.266 4.469,-6.531 6.771,-9.896l8.333,0c0.945,-2.148 1.891,-4.297 2.865,-6.51c7.478,-13.887 15.884,-27.436 26.302,-39.323l8.333,0c1.031,-2.315 2.062,-4.63 3.125,-7.015c6.161,-11.417 13.648,-20.719 21.875,-30.745c8.877,-10.852 17.217,-21.399 25,-33.073l8.333,0l0,-12.5l8.333,0c1.117,-2.406 2.234,-4.812 3.385,-7.292c5.07,-9.606 10.378,-17.794 17.448,-26.042l8.333,0c1.117,-3.094 2.234,-6.188 3.385,-9.375c4.751,-11.003 9.505,-19.19 17.448,-28.125l8.333,0c1.289,-2.578 9.635,-19.271 12.5,-25l8.333,0c0.945,-2.895 1.891,-5.79 2.865,-8.773c6.67,-14.71 15.93,-26.168 26.302,-38.363c1.88,-2.291 3.76,-4.582 5.697,-6.942c4.84,-5.764 9.969,-11.283 15.137,-16.756l8.333,0c0.859,-2.836 1.719,-5.672 2.604,-8.594c5.951,-12.714 13.462,-21.739 22.77,-32.145c12.033,-14.002 23.091,-28.746 34.245,-43.449c5.091,-6.688 10.22,-13.345 15.381,-19.979c1.858,-2.389 3.715,-4.779 5.629,-7.241c4.87,-6.084 10.017,-11.943 15.204,-17.759l8.333,0c1.117,-3.094 2.234,-6.188 3.385,-9.375c4.751,-11.003 9.505,-19.19 17.448,-28.125l8.333,0c1.474,-4.488 1.474,-4.488 2.979,-9.066c6.239,-13.71 14.054,-22.442 24.365,-33.382c12.831,-13.143 12.831,-13.143 22.656,-28.385l8.333,0c0.317,-2.331 0.634,-4.662 0.96,-7.064c4.338,-12.991 11.763,-20.026 21.175,-29.915c10.913,-11.71 21.207,-22.863 29.688,-36.458c2.148,-3.266 4.297,-6.531 6.51,-9.896l8.333,0c1.418,-4.254 1.418,-4.254 2.865,-8.594c4.39,-9.825 8.726,-18.143 14.583,-27.083c1.52,-2.326 3.04,-4.651 4.606,-7.048c25.762,-26.352 51.775,-26.332 86.754,-26.033Z" style="fill:#eeeeed;fill-rule:nonzero;"/></svg>